<svg xmlns="http://www.w3.org/2000/svg" width="430" height="430" style="width:100%;height:100%;transform:translate3d(0,0,0);content-visibility:visible" viewBox="0 0 430 430"><defs><clipPath id="a"><path d="M0 0h430v430H0z"/></clipPath><clipPath id="i"><path d="M0 0h430v430H0z"/></clipPath><clipPath id="h"><path d="M0 0h430v430H0z"/></clipPath><clipPath id="g"><path d="M0 0h430v430H0z"/></clipPath><clipPath id="f"><path d="M0 0h430v430H0z"/></clipPath><clipPath id="e"><path d="M0 0h430v430H0z"/></clipPath><clipPath id="d"><path d="M0 0h430v430H0z"/></clipPath><clipPath id="c"><path d="M0 0h430v430H0z"/></clipPath><clipPath id="b"><path d="M0 0h430v430H0z"/></clipPath></defs><g clip-path="url(#a)"><g clip-path="url(#b)" style="display:none"><g style="display:none"><path class="primary"/><path class="primary" style="mix-blend-mode:multiply"/><path class="tertiary"/></g><g style="display:none"><path class="secondary"/><path class="secondary" style="mix-blend-mode:multiply"/></g><path class="primary" style="display:none"/><path fill="none" class="primary" style="display:none"/><path fill="none" class="primary" style="display:none"/><path fill="none" class="primary" style="display:none"/><path fill="none" class="primary" style="display:none"/></g><g clip-path="url(#c)" style="display:none"><g style="display:none"><path class="primary"/><path class="primary" style="mix-blend-mode:multiply"/><path class="tertiary"/></g><g style="display:none"><path class="secondary"/><path class="secondary" style="mix-blend-mode:multiply"/></g><path class="primary" style="display:none"/><path fill="none" class="primary" style="display:none"/><path fill="none" class="primary" style="display:none"/><path fill="none" class="primary" style="display:none"/></g><g clip-path="url(#d)" style="display:none"><g style="display:none"><path class="primary"/><path class="primary" style="mix-blend-mode:multiply"/><path class="tertiary"/></g><g style="display:none"><path class="secondary"/><path class="secondary" style="mix-blend-mode:multiply"/></g><path class="primary" style="display:none"/><path fill="none" class="primary" style="display:none"/><path fill="none" class="primary" style="display:none"/></g><g clip-path="url(#e)" style="display:none"><g style="display:none"><path class="primary"/><path class="primary" style="mix-blend-mode:multiply"/><path class="tertiary"/></g><g style="display:none"><path class="secondary"/><path class="secondary" style="mix-blend-mode:multiply"/></g><path class="primary" style="display:none"/><path fill="none" class="primary" style="display:none"/><path fill="none" class="primary" style="display:none"/></g><g clip-path="url(#f)" style="display:none"><g style="display:none"><path class="primary"/><path class="primary" style="mix-blend-mode:multiply"/><path class="tertiary"/></g><g style="display:none"><path class="secondary"/><path class="secondary" style="mix-blend-mode:multiply"/></g><path class="primary" style="display:none"/><path fill="none" class="primary" style="display:none"/></g><g clip-path="url(#g)" style="display:none"><g style="display:none"><path class="primary"/><path class="primary" style="mix-blend-mode:multiply"/><path class="tertiary"/></g><g style="display:none"><path class="secondary"/><path class="secondary" style="mix-blend-mode:multiply"/></g><path class="primary" style="display:none"/><path fill="none" class="primary" style="display:none"/></g><g clip-path="url(#h)" style="display:block"><g style="display:block"><g fill="#E3E3E3"><path d="m359.824 347.456-11.91 11.91-59.836-59.836 11.91-11.91z" class="primary"/><path fill-opacity=".5" d="m35.873 23.963-11.91 11.91-59.836-59.836 11.91-11.91z" class="primary" style="mix-blend-mode:multiply" transform="translate(323.951 323.493)"/></g><path fill="#913710" d="m386.219 376.135-9.626 9.626c-4.113 4.113-10.783 4.113-14.896 0l-51.264-51.264c-4.113-4.113-4.113-10.783 0-14.896l9.626-9.626c4.113-4.113 10.783-4.113 14.896 0l51.264 51.264c4.113 4.113 4.113 10.783 0 14.896" class="tertiary"/></g><g fill="#4AB3FC" style="display:block"><path d="M83.815 79.718c58.581-56.572 151.933-54.942 208.505 3.639 56.57 58.581 54.941 151.938-3.64 208.509s-151.933 54.942-208.505-3.64c-56.571-58.58-54.942-151.937 3.64-208.508" class="secondary"/><path d="M-67.481-68.297c52.738-52.738 139.971-53.62 197.418-9.101a148 148 0 0 0-9.85-10.88c-57.195-57.195-149.933-57.195-207.128 0s-57.195 149.929 0 207.124a148 148 0 0 0 13.985 12.328c-47.127-57.529-48.121-145.775 5.575-199.471" class="secondary" opacity=".5" style="mix-blend-mode:multiply" transform="rotate(-89 187.926 14.505)scale(1.00682)"/></g><path fill="#E3E3E3" d="M87.378-134.35c-61.49-61.49-161.2-61.49-222.69 0-61.5 61.5-61.5 161.2 0 222.69 61.49 61.5 161.2 61.5 222.69 0 61.5-61.49 61.5-161.19 0-222.69M79.896 80.858c-57.356 57.356-150.37 57.356-207.726 0s-57.356-150.359 0-207.715c57.356-57.368 150.37-57.368 207.726 0 57.356 57.356 57.356 150.358 0 207.715" class="primary" style="display:block" transform="translate(210 209)"/><path fill="none" stroke="#E3E3E3" stroke-linecap="round" stroke-linejoin="round" stroke-width="2.5" d="M-39.732-20.975a33.2 33.2 0 0 1 7.418-11.278 33.1 33.1 0 0 1 13.845-8.313" class="primary" style="display:block" transform="matrix(3.5 0 0 3.5 214.999 215)"/></g><g clip-path="url(#i)" style="display:none"><g style="display:none"><path class="primary"/><path class="primary" style="mix-blend-mode:multiply"/><path class="tertiary"/></g><g style="display:none"><path class="secondary"/><path class="secondary" style="mix-blend-mode:multiply"/></g><path class="primary" style="display:none"/><path fill="none" class="primary" style="display:none"/></g></g></svg>